<?xml version="1.0" encoding="UTF-8"?>
<svg width="752pt" height="752pt" version="1.1" viewBox="0 0 752 752" xmlns="http://www.w3.org/2000/svg">
 <g>
  <path d="m312.77 554.21c-72.57-24.434-122.62-91.734-124.55-169.05-0.066406-2.5781-2.1211-4.6484-4.6992-4.6484h-13.039c-2.6523 0-4.8398 2.1875-4.7773 4.8398 2.0547 88.637 60.414 165.65 144.56 191.76 1.1055 0.34375 1.7969 1.4219 1.6328 2.5664l-2.375 16.273c-0.26172 1.8047 1.5234 3.2148 3.2188 2.543l54.953-21.863c1.6953-0.67188 2.0234-2.9297 0.59375-4.0586l-46.406-36.668c-1.4297-1.1289-3.5469-0.28906-3.8125 1.5156l-2.1719 14.867c-0.21484 1.4688-1.7227 2.4023-3.1289 1.9297z"/>
  <path d="m440.11 172.34 2.375-16.273c0.26172-1.8047-1.5234-3.2148-3.2188-2.543l-54.953 21.863c-1.6953 0.67188-2.0234 2.9297-0.59375 4.0586l46.406 36.668c1.4297 1.1289 3.5469 0.28906 3.8125-1.5156l2.1719-14.867c0.21484-1.4648 1.7227-2.4023 3.125-1.9297 72.57 24.434 122.62 91.738 124.55 169.06 0.066407 2.5781 2.1211 4.6484 4.6992 4.6484h13.039c2.6523 0 4.8398-2.1875 4.7773-4.8398-2.0547-88.641-60.414-165.65-144.56-191.76-1.1055-0.34375-1.8008-1.4219-1.6328-2.5664z"/>
  <path d="m286.44 185-101.44 101.44c-13.977 13.977-13.977 36.715 0 50.688l229.88 229.88c13.973 13.973 36.711 13.973 50.688 0l101.44-101.44c13.977-13.977 13.977-36.715 0.003906-50.688l-229.88-229.88c-13.977-13.977-36.715-13.977-50.691 0zm-49.887 72.941c-1.293-1.293-1.293-3.4023 0-4.6953l16.691-16.691c1.2969-1.2969 3.4023-1.293 4.6953 0l0.39062 0.39062c1.293 1.293 1.2969 3.3984 0 4.6953l-16.691 16.691c-1.293 1.293-3.4023 1.293-4.6953 0zm286.08 232.29-32.395 32.395c-2.6172 2.6172-6.9023 2.6172-9.5234 0-2.6172-2.6172-2.6172-6.9023 0-9.5234l32.395-32.395c2.6172-2.6172 6.9023-2.6172 9.5234 0 2.6172 2.6211 2.6172 6.9062 0 9.5234zm31.82-77.117c1.7578 1.7578 1.7578 4.6094 0 6.3672l-134.97 134.97c-1.7578 1.7578-4.6094 1.7578-6.3672 0l-222.62-222.63c-1.7578-1.7578-1.7578-4.6094 0-6.3672l134.96-134.96c1.7578-1.7578 4.6094-1.7578 6.3672 0z"/>
 </g>
</svg>
